<?xml version="1.0" encoding="utf-8"?>
<svg version="1.1" id="Layer_1" xmlns="http://www.w3.org/2000/svg" xmlns:xlink="http://www.w3.org/1999/xlink" x="0px" y="0px"
	 viewBox="0 0 2560 1600" enable-background="new 0 0 2560 1600" xml:space="preserve">
<pattern  width="200" height="244" patternUnits="userSpaceOnUse" id="New_Pattern" viewBox="50.403 -491 200 244" overflow="visible">
	<g>
		<rect x="50.403" y="-491" fill="none" width="200" height="244"/>
		<path d="M164.088-18.297c-25.308,0-45.897-20.59-45.897-45.897c0-25.308,20.59-45.897,45.897-45.897v-17.628
			c49.45-23.154,49.243-95.397-2.379-117.232c-7.92-3.35-16.328-5.048-24.99-5.048v18.297c25.308,0,45.897,20.589,45.897,45.897
			c0,25.308-20.59,45.897-45.897,45.897v17.628C86.692-98.893,88.071-26.631,139.098-5.048C147.018-1.699,155.426,0,164.088,0
			V-18.297z"/>
		<path d="M264.088-140.297c-25.308,0-45.897-20.59-45.897-45.897c0-25.308,20.59-45.897,45.897-45.897v-17.628
			c49.45-23.154,49.243-95.397-2.379-117.232c-7.92-3.35-16.328-5.048-24.99-5.048v18.297c25.308,0,45.897,20.589,45.897,45.897
			c0,25.308-20.59,45.897-45.897,45.897v17.628c-50.027,23.388-48.648,95.649,2.379,117.232c7.92,3.35,16.328,5.048,24.99,5.048
			V-140.297z"/>
		<path d="M64.088-140.297c-25.308,0-45.897-20.59-45.897-45.897c0-25.308,20.59-45.897,45.897-45.897v-17.628
			c49.45-23.154,49.243-95.397-2.379-117.232c-7.92-3.35-16.328-5.048-24.99-5.048v18.297c25.308,0,45.897,20.589,45.897,45.897
			c0,25.308-20.59,45.897-45.897,45.897v17.628c-50.027,23.388-48.648,95.649,2.379,117.232c7.92,3.35,16.328,5.048,24.99,5.048
			V-140.297z"/>
		<path d="M164.088-262.297c-25.308,0-45.897-20.59-45.897-45.897c0-25.308,20.59-45.897,45.897-45.897v-17.628
			c49.45-23.154,49.243-95.397-2.379-117.232c-7.92-3.35-16.328-5.048-24.99-5.048v18.297c25.308,0,45.897,20.589,45.897,45.897
			c0,25.308-20.59,45.897-45.897,45.897v17.628c-50.027,23.388-48.648,95.649,2.379,117.232c7.92,3.35,16.328,5.048,24.99,5.048
			V-262.297z"/>
		<path d="M264.088-384.297c-25.308,0-45.897-20.59-45.897-45.897c0-25.308,20.59-45.897,45.897-45.897v-17.628
			c49.45-23.154,49.243-95.397-2.379-117.232c-7.92-3.35-16.328-5.048-24.99-5.048v18.297c25.308,0,45.897,20.589,45.897,45.897
			c0,25.308-20.59,45.897-45.897,45.897v17.628c-50.027,23.388-48.648,95.649,2.379,117.232c7.92,3.35,16.328,5.048,24.99,5.048
			V-384.297z"/>
		<path d="M64.088-384.297c-25.308,0-45.897-20.59-45.897-45.897c0-25.308,20.59-45.897,45.897-45.897v-17.628
			c49.45-23.154,49.243-95.397-2.379-117.232c-7.92-3.35-16.328-5.048-24.99-5.048v18.297c25.308,0,45.897,20.589,45.897,45.897
			c0,25.308-20.59,45.897-45.897,45.897v17.628c-50.027,23.388-48.648,95.649,2.379,117.232c7.92,3.35,16.328,5.048,24.99,5.048
			V-384.297z"/>
		<path d="M164.088-506.297c-25.308,0-45.897-20.59-45.897-45.897c0-25.308,20.59-45.897,45.897-45.897v-17.628
			c49.45-23.154,49.243-95.397-2.379-117.232c-7.92-3.35-16.328-5.048-24.99-5.048v18.297c25.308,0,45.897,20.589,45.897,45.897
			c0,25.308-20.59,45.897-45.897,45.897v17.628c-50.027,23.388-48.648,95.649,2.379,117.232c7.92,3.35,16.328,5.048,24.99,5.048
			V-506.297z"/>
	</g>
</pattern>
<rect fill="url(#New_Pattern)" width="2560" height="1600"/>
</svg>
